<svg xmlns="http://www.w3.org/2000/svg" width="500" height="500" fill="none" viewBox="0 0 500 500">
  <circle cx="250" cy="250" r="249.5" fill="#7A000C" stroke="#000"/>
  <path fill="#7A000C" stroke="#000" d="M457.5 250.5c0 118.201-93.361 214-208.5 214s-208.5-95.799-208.5-214 93.361-214 208.5-214 208.5 95.799 208.5 214Z"/>
  <circle cx="251.5" cy="250.5" r="167" fill="#7A000C" stroke="#000" transform="rotate(60 251.5 250.5)"/>
  <circle cx="251.198" cy="250.198" r="158.5" fill="#7A000C" stroke="#000" transform="rotate(-90 251.198 250.198)"/>
  <mask id="a" fill="#fff">
    <path fill-rule="evenodd" d="M224.892 85.081a167.277 167.277 0 0 1 51-.302v8.325a160.196 160.196 0 0 0-24.694-1.906c-8.961 0-17.749.741-26.306 2.166v-8.283Zm-78.678 35.115a168.72 168.72 0 0 1 21.536-14.755 168.812 168.812 0 0 1 22.551-10.885l4.093 7.089a158.83 158.83 0 0 0-44.08 25.652l-4.1-7.101Zm-34.056 37.285a166.61 166.61 0 0 1 11.198-14.92l7.146 4.126a159.012 159.012 0 0 0-26.602 43.531l-7.053-4.072a168.279 168.279 0 0 1 4.576-10.072l10.735-18.593Zm-27.262 75.602a168.213 168.213 0 0 1 1.73-12.144h8.258a159.893 159.893 0 0 0-2.686 29.259c0 7.375.502 14.633 1.474 21.741h-8.338c-.16-1.245-.306-2.491-.438-3.737v-35.119Zm16.626 92.015a167.892 167.892 0 0 1-7.556-17.6l7.308-4.22a158.685 158.685 0 0 0 24.549 44.717l-7.391 4.267a168.47 168.47 0 0 1-6.524-9.176l-10.386-17.988Zm52.598 61.737a166.395 166.395 0 0 1-10.229-7.914l4.358-7.548a158.92 158.92 0 0 0 43.649 26.398l-4.357 7.546a170 170 0 0 1-5.672-2.461l-27.749-16.021Zm86.797 30.848a168.116 168.116 0 0 1-18.823-2.281v-8.862a159.847 159.847 0 0 0 29.104 2.658c7.429 0 14.739-.509 21.896-1.495v8.943c-3.566.462-7.138.807-10.709 1.037h-21.468Zm87.824-18.552a168.142 168.142 0 0 1-19.691 8.701l-4.506-7.804a158.7 158.7 0 0 0 44.672-24.627l4.51 7.812a168.538 168.538 0 0 1-12.129 8.495l-12.856 7.423Zm62.101-55.612a166.563 166.563 0 0 1-11.198 14.92l-7.897-4.56a158.993 158.993 0 0 0 26.665-43.494l7.741 4.469a168.05 168.05 0 0 1-4.576 10.072l-10.735 18.593Zm26.784-114.769a167.467 167.467 0 0 1-1.196 51h-8.973a159.85 159.85 0 0 0 2.741-29.552c0-7.274-.488-14.433-1.434-21.448h8.862Zm-16.148-52.846a167.86 167.86 0 0 1 7.556 17.598l-7.634 4.408a158.65 158.65 0 0 0-24.315-44.851l7.483-4.321a168.43 168.43 0 0 1 6.523 9.175l10.387 17.991Zm-41.71-53.27-4.33 7.499a159.03 159.03 0 0 0-43.376-26.87l4.187-7.252a167.172 167.172 0 0 1 43.519 26.623Z" clip-rule="evenodd"/>
  </mask>
  <path fill="#fff" fill-rule="evenodd" d="M224.892 85.081a167.277 167.277 0 0 1 51-.302v8.325a160.196 160.196 0 0 0-24.694-1.906c-8.961 0-17.749.741-26.306 2.166v-8.283Zm-78.678 35.115a168.72 168.72 0 0 1 21.536-14.755 168.812 168.812 0 0 1 22.551-10.885l4.093 7.089a158.83 158.83 0 0 0-44.08 25.652l-4.1-7.101Zm-34.056 37.285a166.61 166.61 0 0 1 11.198-14.92l7.146 4.126a159.012 159.012 0 0 0-26.602 43.531l-7.053-4.072a168.279 168.279 0 0 1 4.576-10.072l10.735-18.593Zm-27.262 75.602a168.213 168.213 0 0 1 1.73-12.144h8.258a159.893 159.893 0 0 0-2.686 29.259c0 7.375.502 14.633 1.474 21.741h-8.338c-.16-1.245-.306-2.491-.438-3.737v-35.119Zm16.626 92.015a167.892 167.892 0 0 1-7.556-17.6l7.308-4.22a158.685 158.685 0 0 0 24.549 44.717l-7.391 4.267a168.47 168.47 0 0 1-6.524-9.176l-10.386-17.988Zm52.598 61.737a166.395 166.395 0 0 1-10.229-7.914l4.358-7.548a158.92 158.92 0 0 0 43.649 26.398l-4.357 7.546a170 170 0 0 1-5.672-2.461l-27.749-16.021Zm86.797 30.848a168.116 168.116 0 0 1-18.823-2.281v-8.862a159.847 159.847 0 0 0 29.104 2.658c7.429 0 14.739-.509 21.896-1.495v8.943c-3.566.462-7.138.807-10.709 1.037h-21.468Zm87.824-18.552a168.142 168.142 0 0 1-19.691 8.701l-4.506-7.804a158.7 158.7 0 0 0 44.672-24.627l4.51 7.812a168.538 168.538 0 0 1-12.129 8.495l-12.856 7.423Zm62.101-55.612a166.563 166.563 0 0 1-11.198 14.92l-7.897-4.56a158.993 158.993 0 0 0 26.665-43.494l7.741 4.469a168.05 168.05 0 0 1-4.576 10.072l-10.735 18.593Zm26.784-114.769a167.467 167.467 0 0 1-1.196 51h-8.973a159.85 159.85 0 0 0 2.741-29.552c0-7.274-.488-14.433-1.434-21.448h8.862Zm-16.148-52.846a167.86 167.86 0 0 1 7.556 17.598l-7.634 4.408a158.65 158.65 0 0 0-24.315-44.851l7.483-4.321a168.43 168.43 0 0 1 6.523 9.175l10.387 17.991Zm-41.71-53.27-4.33 7.499a159.03 159.03 0 0 0-43.376-26.87l4.187-7.252a167.172 167.172 0 0 1 43.519 26.623Z" clip-rule="evenodd"/>
  <path fill="#000" d="m224.892 85.081-.158-.987-.842.135v.852h1Zm51-.302h1v-.863l-.853-.126-.147.989Zm0 8.325-.154.988 1.154.18v-1.168h-1Zm-51 .26h-1v1.18l1.165-.194-.165-.986Zm-78.678 26.832-.628-.779-.666.537.428.742.866-.5Zm21.536-14.755-.5-.866.5.866Zm22.551-10.885.866-.5-.431-.746-.802.316.367.93Zm4.093 7.089.357.934 1.095-.419-.586-1.015-.866.5Zm-44.08 25.652-.866.5.589 1.021.911-.749-.634-.772Zm-38.156 30.184-.832-.555-.018.027-.016.028.866.5Zm11.198-14.92.5-.866-.725-.418-.54.64.765.644Zm7.146 4.126.759.652.785-.915-1.044-.603-.5.866ZM103.9 190.218l-.5.866.993.573.433-1.061-.926-.378Zm-7.053-4.072-.924-.384-.337.811.76.439.5-.866Zm4.576-10.072-.866-.5-.016.028-.014.029.896.443Zm-16.527 57.009-.995-.105-.005.053v.052h1Zm1.73-12.144v-1h-.837l-.148.823.984.177Zm8.258 0 .984.183.22-1.183h-1.204v1Zm-1.212 51v1h1.146l-.155-1.135-.99.135Zm-8.338 0-.992.128.112.872h.88v-1Zm-.438-3.737h-1v.053l.006.052.994-.105Zm16.626 56.896-.895.446.014.027.015.027.866-.5Zm-7.556-17.6-.5-.866-.726.419.286.788.94-.341Zm7.308-4.22.943-.333-.402-1.134-1.041.601.5.866Zm24.549 44.717.5.866.996-.575-.708-.907-.788.616Zm-7.391 4.267-.795.606.534.699.761-.439-.5-.866Zm-6.524-9.176-.866.5.015.026.017.026.834-.552Zm42.212 43.749-.58.814.039.028.041.024.5-.866Zm-10.229-7.914-.866-.5-.42.727.644.539.642-.766Zm4.358-7.548.648-.761-.914-.778-.6 1.039.866.5Zm43.649 26.398.866.5.576-.997-1.069-.43-.373.927Zm-4.357 7.546-.381.924.809.334.438-.758-.866-.5Zm-5.672-2.461-.5.866.042.024.043.019.415-.909Zm59.048 14.827-.064.998.032.002h.032v-1Zm-18.823-2.281h-1v.837l.824.148.176-.985Zm0-8.862.182-.983-1.182-.218v1.201h1Zm51 1.163h1v-1.147l-1.136.156.136.991Zm0 8.943.129.992.871-.113v-.879h-1Zm-10.709 1.037v1h.032l.032-.002-.064-.998Zm66.356-18.552.462.887.019-.01.019-.011-.5-.866Zm-19.691 8.701-.866.5.421.729.79-.29-.345-.939Zm-4.506-7.804-.335-.942-1.131.402.6 1.04.866-.5Zm44.672-24.627.866-.5-.577-.998-.906.711.617.787Zm4.51 7.812.609.793.695-.534-.438-.759-.866.5Zm-12.129 8.495.5.866.019-.011.019-.012-.538-.843Zm49.245-48.189.832.554.018-.026.016-.028-.866-.5Zm-11.198 14.92-.5.866.725.418.54-.64-.765-.644Zm-7.897-4.56-.758-.652-.787.915 1.045.603.5-.866Zm26.665-43.494.5-.866-.992-.573-.434 1.06.926.379Zm7.741 4.469.924.384.337-.811-.761-.439-.5.866Zm-4.576 10.072.866.5.016-.027.014-.029-.896-.444Zm16.049-96.176.992-.129-.114-.871h-.878v1Zm-1.196 51v1h.838l.147-.824-.985-.176Zm-8.973 0-.983-.184-.223 1.184h1.206v-1Zm1.307-51v-1h-1.144l.153 1.134.991-.134Zm-7.286-52.846.895-.447-.013-.027-.016-.026-.866.5Zm7.556 17.598.5.866.726-.419-.286-.788-.94.341Zm-7.634 4.408-.944.329.397 1.141 1.047-.604-.5-.866Zm-24.315-44.851-.5-.866-.991.572.699.905.792-.611Zm7.483-4.321.795-.606-.534-.699-.761.439.5.866Zm6.523 9.175.866-.5-.015-.026-.017-.026-.834.552Zm-31.323-35.279.866.5.417-.723-.637-.54-.646.763Zm-4.33 7.499-.655.754.915.796.607-1.05-.867-.5Zm-43.376-26.87-.866-.5-.57.987 1.053.437.383-.924Zm4.187-7.252.386-.922-.812-.34-.44.762.866.5Zm-91.198-9.943a166.276 166.276 0 0 1 50.695-.3l.293-1.978a168.277 168.277 0 0 0-51.305.304l.317 1.974Zm51.841 7.036V84.78h-2v8.325h2Zm-25.694-.906c8.348 0 16.544.647 24.54 1.894l.308-1.976a161.195 161.195 0 0 0-24.848-1.918v2Zm-26.141 2.152a159.077 159.077 0 0 1 26.141-2.152v-2c-9.016 0-17.859.746-26.47 2.18l.329 1.972Zm-1.165-9.269v8.283h2v-8.283h-2Zm-77.051 35.893a167.903 167.903 0 0 1 21.409-14.667l-1-1.732a169.748 169.748 0 0 0-21.664 14.842l1.255 1.557Zm21.409-14.667a167.89 167.89 0 0 1 22.417-10.82l-.733-1.861a169.828 169.828 0 0 0-22.684 10.949l1 1.732Zm27.01-5.162-4.093-7.089-1.732 1 4.093 7.089 1.732-1Zm-44.312 26.924a157.861 157.861 0 0 1 43.803-25.49l-.715-1.868a159.835 159.835 0 0 0-44.357 25.813l1.269 1.545Zm-5.6-7.373 4.1 7.101 1.732-1-4.1-7.101-1.732 1Zm-32.358 37.339a165.645 165.645 0 0 1 11.131-14.829l-1.53-1.289a167.74 167.74 0 0 0-11.265 15.009l1.664 1.109Zm18.012-12.214-7.146-4.126-1 1.733 7.146 4.125 1-1.732Zm-26.176 44.775a157.966 157.966 0 0 1 26.435-43.257l-1.517-1.303a159.982 159.982 0 0 0-26.77 43.805l1.852.755Zm-8.48-3.584 7.054 4.072 1-1.732-7.053-4.072-1 1.732Zm1.424-.483a167.38 167.38 0 0 1 4.549-10.011l-1.792-.887a168.899 168.899 0 0 0-4.604 10.131l1.847.767Zm13.522-29.548-10.735 18.593 1.732 1 10.735-18.593-1.732-1Zm-25.401 76.207c.426-4.047 1-8.074 1.719-12.072l-1.969-.354a169.203 169.203 0 0 0-1.74 12.216l1.99.21Zm8.993-13.249h-8.258v2h8.258v-2Zm-1.686 30.259c0-9.934.917-19.652 2.67-29.076l-1.967-.366a160.888 160.888 0 0 0-2.703 29.442h2Zm1.465 21.606a159.431 159.431 0 0 1-1.465-21.606h-2c0 7.421.505 14.724 1.483 21.877l1.982-.271Zm-9.33 1.135h8.34v-2h-8.34v2Zm.993-1.127c-.16-1.238-.305-2.476-.435-3.715l-1.99.21c.133 1.254.28 2.507.44 3.76l1.985-.255Zm-2.43-38.729v35.119h2v-35.119h-2Zm18.521 91.568a166.736 166.736 0 0 1-7.511-17.495l-1.88.683a168.844 168.844 0 0 0 7.601 17.705l1.79-.893Zm-1.643-22.239-7.308 4.22 1 1.732 7.308-4.22-1-1.732Zm25.837 44.967a157.663 157.663 0 0 1-24.394-44.434l-1.886.667a159.712 159.712 0 0 0 24.703 44.999l1.577-1.232Zm-7.679 5.749 7.391-4.267-1-1.732-7.391 4.267 1 1.732Zm.295-1.473a167.547 167.547 0 0 1-6.485-9.121l-1.668 1.104a169.527 169.527 0 0 0 6.563 9.23l1.59-1.213Zm-18.571-26.057 10.386 17.988 1.732-1-10.386-17.988-1.732 1Zm54.045 60.423a165.414 165.414 0 0 1-10.168-7.867l-1.284 1.533a167.324 167.324 0 0 0 10.291 7.962l1.161-1.628Zm-7.318-15.148-4.358 7.548 1.732 1 4.358-7.548-1.732-1Zm44.888 25.971a157.96 157.96 0 0 1-43.374-26.232l-1.296 1.523a159.948 159.948 0 0 0 43.923 26.564l.747-1.855Zm-3.864 8.973 4.357-7.546-1.733-1-4.356 7.546 1.732 1Zm-.485-1.425a167.077 167.077 0 0 1-5.638-2.446l-.83 1.819c1.888.861 3.79 1.687 5.706 2.476l.762-1.849Zm-34.302-16.691 27.749 16.021 1-1.732-27.749-16.021-1 1.732Zm87.361 28.984a167.079 167.079 0 0 1-18.711-2.267l-.352 1.969a169.152 169.152 0 0 0 18.935 2.294l.128-1.996Zm-19.887-10.145v8.862h2v-8.862h-2Zm30.104 1.658c-9.879 0-19.546-.907-28.922-2.641l-.364 1.967a160.946 160.946 0 0 0 29.286 2.674v-2Zm21.76-1.486a159.366 159.366 0 0 1-21.76 1.486v2c7.475 0 14.83-.513 22.033-1.505l-.273-1.981Zm1.136 9.934v-8.943h-2v8.943h2Zm-1.128-.991c-3.545.459-7.095.802-10.645 1.03l.128 1.996c3.593-.231 7.186-.578 10.774-1.043l-.257-1.983Zm-32.049 3.028h21.468v-2h-21.468v2Zm87.362-20.439a167.133 167.133 0 0 1-19.574 8.65l.69 1.877a169.066 169.066 0 0 0 19.808-8.753l-.924-1.774Zm-24.601 2.284 4.506 7.804 1.732-1-4.506-7.804-1.732 1Zm44.921-25.914a157.723 157.723 0 0 1-44.39 24.472l.671 1.884a159.713 159.713 0 0 0 44.953-24.782l-1.234-1.574Zm5.993 8.099-4.51-7.812-1.732 1 4.51 7.812 1.732-1Zm-1.476-.293a167.7 167.7 0 0 1-12.056 8.445l1.075 1.686a169.116 169.116 0 0 0 12.2-8.545l-1.219-1.586Zm-23.875 17.577 12.856-7.423-1-1.732-12.856 7.423 1 1.732Zm60.769-57.033a165.515 165.515 0 0 1-11.131 14.83l1.53 1.289a167.372 167.372 0 0 0 11.265-15.01l-1.664-1.109Zm-18.763 11.781 7.897 4.56 1-1.732-7.897-4.56-1 1.732Zm26.239-44.739a157.98 157.98 0 0 1-26.497 43.221l1.516 1.305a160.005 160.005 0 0 0 26.832-43.769l-1.851-.757Zm9.167 3.982-7.741-4.469-1 1.732 7.741 4.469 1-1.732Zm-1.423.483a166.98 166.98 0 0 1-4.55 10.012l1.793.887a169.72 169.72 0 0 0 4.604-10.132l-1.847-.767Zm-13.522 29.548 10.735-18.593-1.732-1-10.735 18.593 1.732 1Zm24.926-115.139a166.463 166.463 0 0 1-1.188 50.695l1.969.351a168.504 168.504 0 0 0 1.203-51.305l-1.984.259Zm-9.177 51.87h8.973v-2h-8.973v2Zm1.741-30.552c0 10.036-.936 19.853-2.724 29.368l1.966.369a160.885 160.885 0 0 0 2.758-29.737h-2Zm-1.425-21.314c.94 6.97 1.425 14.085 1.425 21.314h2c0-7.318-.491-14.523-1.443-21.581l-1.982.267Zm9.853-1.134h-8.862v2h8.862v-2Zm-17.043-51.4a166.81 166.81 0 0 1 7.511 17.494l1.88-.683a168.94 168.94 0 0 0-7.601-17.704l-1.79.893Zm1.317 22.426 7.634-4.408-1-1.732-7.634 4.408 1 1.732Zm-25.607-45.106a157.654 157.654 0 0 1 24.163 44.569l1.889-.658a159.67 159.67 0 0 0-24.469-45.134l-1.583 1.223Zm7.775-5.798-7.483 4.321 1 1.732 7.483-4.321-1-1.732Zm-.295 1.473a167.521 167.521 0 0 1 6.485 9.12l1.667-1.104a169.097 169.097 0 0 0-6.562-9.229l-1.59 1.213Zm18.571 26.059-10.387-17.991-1.732 1 10.387 17.991 1.732-1Zm-43.442-53.27-4.33 7.499 1.733 1 4.329-7.499-1.732-1Zm-2.808 7.244a160.034 160.034 0 0 0-43.649-27.038l-.766 1.847a158.04 158.04 0 0 1 43.104 26.7l1.311-1.509Zm-43.166-25.615 4.187-7.252-1.732-1-4.187 7.252 1.732 1Zm2.935-6.83a166.142 166.142 0 0 1 43.259 26.464l1.292-1.526a168.162 168.162 0 0 0-43.779-26.782l-.772 1.845Z" mask="url(#a)"/>
  <mask id="b" fill="#fff">
    <path fill-rule="evenodd" d="M13.604 168.448c10.755-31.182 27.506-59.571 48.875-83.788l33.735 19.477c-21.644 23.788-38.075 52.635-47.427 84.624l-35.183-20.313Zm47.21 244.987c-21.115-24.421-37.581-52.972-48.023-84.279l35.053-20.239c8.853 32.174 24.837 61.276 46.088 85.398l-33.117 19.12Zm187.966 86.562a250.974 250.974 0 0 1-49.147-5.073v-35.943C215.462 462.915 231.994 465 249 465c16.387 0 32.333-1.936 47.633-5.596v36.254a251.215 251.215 0 0 1-45.413 4.339h-2.44Zm208.813-110.649a251.077 251.077 0 0 1-20.495 26.47l-34.461-19.896c21.498-23.911 37.764-52.853 46.931-84.91l36.62 21.142a248.374 248.374 0 0 1-11.488 27.564l-17.107 29.63ZM474.7 140.282a248.506 248.506 0 0 1 12.307 29.957l-36.987 21.354c-8.926-32.146-24.975-61.211-46.284-85.284l35.032-20.225a251.06 251.06 0 0 1 18.825 24.568l17.107 29.63ZM298.374 4.677V42.02C282.544 38.085 266.009 36 249 36a204.489 204.489 0 0 0-47.626 5.594V4.726A251.238 251.238 0 0 1 250 0c16.55 0 32.724 1.608 48.374 4.677Z" clip-rule="evenodd"/>
  </mask>
  <path fill="#fff" fill-rule="evenodd" d="M13.604 168.448c10.755-31.182 27.506-59.571 48.875-83.788l33.735 19.477c-21.644 23.788-38.075 52.635-47.427 84.624l-35.183-20.313Zm47.21 244.987c-21.115-24.421-37.581-52.972-48.023-84.279l35.053-20.239c8.853 32.174 24.837 61.276 46.088 85.398l-33.117 19.12Zm187.966 86.562a250.974 250.974 0 0 1-49.147-5.073v-35.943C215.462 462.915 231.994 465 249 465c16.387 0 32.333-1.936 47.633-5.596v36.254a251.215 251.215 0 0 1-45.413 4.339h-2.44Zm208.813-110.649a251.077 251.077 0 0 1-20.495 26.47l-34.461-19.896c21.498-23.911 37.764-52.853 46.931-84.91l36.62 21.142a248.374 248.374 0 0 1-11.488 27.564l-17.107 29.63ZM474.7 140.282a248.506 248.506 0 0 1 12.307 29.957l-36.987 21.354c-8.926-32.146-24.975-61.211-46.284-85.284l35.032-20.225a251.06 251.06 0 0 1 18.825 24.568l17.107 29.63ZM298.374 4.677V42.02C282.544 38.085 266.009 36 249 36a204.489 204.489 0 0 0-47.626 5.594V4.726A251.238 251.238 0 0 1 250 0c16.55 0 32.724 1.608 48.374 4.677Z" clip-rule="evenodd"/>
  <path fill="#000" d="m13.604 168.448-.946-.326-.269.779.715.413.5-.866ZM62.479 84.66l.5-.866-.709-.41-.541.614.75.662Zm33.735 19.477.74.673.835-.918-1.075-.621-.5.866Zm-47.427 84.624-.5.866 1.102.637.358-1.222-.96-.281Zm12.028 224.674-.757.654.541.625.716-.413-.5-.866ZM12.79 329.156l-.5-.866-.707.408.258.774.949-.316Zm35.053-20.239.965-.265-.344-1.248-1.12.647.5.866Zm46.088 85.398.5.866 1.058-.611-.808-.916-.75.661ZM248.78 499.997l-.005 1h.005v-1Zm-49.147-5.073h-1v.817l.8.163.2-.98Zm0-35.943.242-.97-1.242-.309v1.279h1Zm97 .423h1v-1.267l-1.232.295.232.972Zm0 36.254.186.983.814-.154v-.829h-1Zm-45.413 4.339v1h.005l-.005-1Zm206.373-110.649.83.558.019-.028.017-.03-.866-.5Zm-20.495 26.47-.5.866.707.408.541-.61-.748-.664Zm-34.461-19.896-.743-.668-.825.917 1.068.617.5-.866Zm46.931-84.91.5-.866-1.109-.641-.353 1.232.962.275Zm36.62 21.142.944.329.272-.781-.716-.414-.5.866ZM474.7 359.718l.866.5.017-.03.016-.031-.899-.439Zm0-219.436.898-.44-.015-.03-.017-.03-.866.5Zm12.307 29.957.5.866.708-.409-.261-.776-.947.319Zm-36.987 21.354-.963.267.345 1.244 1.118-.645-.5-.866Zm-46.284-85.284-.5-.866-1.06.612.811.917.749-.663Zm35.032-20.225.755-.657-.541-.622-.714.412.5.867Zm18.825 24.568.866-.5-.017-.03-.019-.028-.83.558ZM298.374 4.677h1v-.823l-.807-.159-.193.982Zm0 37.343-.241.971 1.241.309v-1.28h-1Zm-97-.426h-1v1.267l1.233-.294-.233-.973Zm0-36.868-.193-.981-.807.159v.822h1ZM14.549 168.774c10.712-31.056 27.396-59.331 48.68-83.452l-1.5-1.324c-21.454 24.314-38.272 52.816-49.07 84.124l1.89.652Zm82.165-65.503L62.979 83.794l-1 1.732 33.735 19.477 1-1.732Zm-46.967 85.771c9.309-31.842 25.664-60.555 47.206-84.232l-1.479-1.346c-21.744 23.899-38.252 52.88-47.647 85.016l1.92.562Zm-36.643-19.728 35.183 20.313 1-1.732-35.183-20.313-1 1.732ZM61.57 412.781c-21.03-24.324-37.43-52.761-47.83-83.942l-1.897.633c10.484 31.434 27.017 60.099 48.216 84.617l1.513-1.308Zm-14.227-104.73L12.291 328.29l1 1.732 35.053-20.239-1-1.732Zm47.338 85.603c-21.152-24.009-37.061-52.977-45.873-85.002l-1.929.531c8.894 32.321 24.951 61.559 46.302 85.793l1.5-1.322Zm-33.367 20.647 33.117-19.12-1-1.732-33.117 19.12 1 1.732Zm187.47 84.696a250.055 250.055 0 0 1-48.951-5.052l-.401 1.959a252.02 252.02 0 0 0 49.342 5.093l.01-2Zm-50.152-40.016v35.943h2v-35.943h-2ZM249 464c-16.924 0-33.375-2.075-49.125-5.989l-.483 1.941C215.299 463.905 231.912 466 249 466v-2Zm47.401-5.568A203.51 203.51 0 0 1 249 464v2c16.466 0 32.49-1.945 47.866-5.623l-.465-1.945Zm1.232 37.226v-36.254h-2v36.254h2Zm-1.185-.982a250.322 250.322 0 0 1-45.232 4.321l.009 2a252.223 252.223 0 0 0 45.594-4.356l-.371-1.965Zm-47.668 6.321h2.44v-2h-2.44v2ZM456.764 388.79a250.167 250.167 0 0 1-20.414 26.365l1.496 1.327a252.008 252.008 0 0 0 20.577-26.576l-1.659-1.116Zm-54.627 7.998 34.461 19.896 1-1.732-34.461-19.896-1 1.732Zm46.469-86.051c-9.125 31.909-25.315 60.717-46.712 84.517l1.487 1.337c21.598-24.023 37.939-53.099 47.148-85.304l-1.923-.55Zm38.082 20.551-36.62-21.142-1 1.732 36.62 21.142 1-1.732Zm-1.445.538a247.28 247.28 0 0 1-11.441 27.452l1.797.879a249.427 249.427 0 0 0 11.533-27.674l-1.889-.657Zm-26.784 58.022 17.107-29.63-1.732-1-17.107 29.63 1.732 1Zm15.343-249.127a247.462 247.462 0 0 1 12.257 29.837l1.895-.638a249.168 249.168 0 0 0-12.356-30.078l-1.796.879Zm-23.282 51.738 36.987-21.354-1-1.732-36.987 21.354 1 1.732Zm-47.533-85.487c21.21 23.96 37.185 52.891 46.07 84.888l1.927-.535c-8.968-32.294-25.091-61.494-46.499-85.679l-1.498 1.326Zm35.281-21.754-35.032 20.225 1 1.732 35.032-20.225-1-1.733Zm-.255 1.522a249.91 249.91 0 0 1 18.751 24.47l1.659-1.116a252.076 252.076 0 0 0-18.9-24.666l-1.51 1.312Zm37.553 53.042-17.107-29.63-1.732 1 17.107 29.63 1.732-1ZM297.374 4.677V42.02h2V4.677h-2Zm1.242 36.373C282.707 37.095 266.091 35 249 35v2c16.927 0 33.381 2.075 49.133 5.991l.483-1.941ZM249 35a205.484 205.484 0 0 0-47.858 5.621l.465 1.946A203.496 203.496 0 0 1 249 37v-2Zm-46.626 6.594V4.726h-2v36.868h2Zm-.806-35.887A250.224 250.224 0 0 1 250 1v-2a252.225 252.225 0 0 0-48.819 4.745l.387 1.962ZM250 1a250.25 250.25 0 0 1 48.182 4.658l.385-1.963A252.25 252.25 0 0 0 250-1v2Z" mask="url(#b)"/>
</svg>
