<svg xmlns="http://www.w3.org/2000/svg" width="800" height="500" fill="none" viewBox="0 0 1057 610">
  <path fill="#B00" stroke="#000" d="M829.001 262c0-39.001-572-90.001-572-55.5 0 34.5-19.501 125.014 113.999 190.685 106.375 52.327 260.086 63.025 358.5 21.315 90-38.144 99.501-117.5 99.501-156.5Z"/>
  <path fill="#B00" stroke="#000" d="M759.323 358.244c-103.255 59.615-283.74 52.183-403.135-16.749-119.394-68.933-132.266-173.136-29.011-232.75 103.254-59.615 283.74-52.183 403.134 16.749 119.395 68.933 132.267 173.136 29.012 232.75Z"/>
  <path fill="#B00" stroke="#000" d="M722.575 337.461c-88.56 51.13-241.23 45.983-341.003-11.622-99.774-57.604-108.69-145.748-20.129-196.878 88.56-51.13 241.23-45.983 341.003 11.621 99.774 57.605 108.69 145.749 20.129 196.879Z"/>
  <path fill="#B00" stroke="#000" d="M508.033 338.8c-103.79-19.975-171.666-82.891-151.714-140.493 19.953-57.602 120.207-88.16 223.996-68.185 103.79 19.975 171.666 82.891 151.714 140.493-19.953 57.602-120.207 88.16-223.996 68.185Z"/>
  <path fill="#B00" stroke="#000" d="M662.952 165.582c75.87 43.804 84.014 109.995 18.452 147.847-65.562 37.853-180.209 33.151-256.079-10.653-75.869-43.803-84.014-109.994-18.451-147.847 65.562-37.852 180.208-33.15 256.078 10.653Z"/>
  <mask id="a" fill="#fff">
    <path fill-rule="evenodd" d="M645.192 149.531c16.797 7.329 31.729 15.909 44.394 25.369l-6.244 3.605c-6.028-4.567-12.682-8.973-19.957-13.173-7.76-4.48-15.926-8.553-24.405-12.215l6.212-3.586Zm-94.473-24.135a342.617 342.617 0 0 1 29.717 4.379 330.456 330.456 0 0 1 27.692 6.563l-1.772 5.116c-18.583-5.389-37.986-9.044-57.412-10.933l1.775-5.125Zm-57.456-.883a311.829 311.829 0 0 1 20.887-.861l3.094 5.359c-19.241.049-38.069 1.887-55.685 5.548l-3.055-5.29a266.084 266.084 0 0 1 11.517-2.073l23.242-2.683Zm-80.31 19.105a183.407 183.407 0 0 1 10.606-4.394l7.152 4.129c-8.64 3.225-16.774 6.998-24.27 11.326-5.531 3.194-10.54 6.587-15.029 10.151l-7.221-4.169c.795-.619 1.603-1.232 2.423-1.837l26.339-15.206Zm-54.61 48.155c1.839-3.943 4.067-7.745 6.656-11.399l9.493 1.827c-7.222 9.937-11.295 20.635-12.277 31.637l-9.6-1.848a62.149 62.149 0 0 1 1.231-7.236l4.497-12.981Zm-.75 53.031a75.437 75.437 0 0 1-2.924-8.541l9.434-1.09c2.952 11.228 8.972 22.467 18.003 33.255l-9.431 1.089a115.243 115.243 0 0 1-3.066-3.901l-12.016-20.812Zm52.032 56.756a189.155 189.155 0 0 1-14.59-10.399l6.646-3.837c6.862 5.473 14.603 10.732 23.211 15.702a232.48 232.48 0 0 0 20.085 10.301l-6.708 3.872a249.545 249.545 0 0 1-10.052-4.905l-18.592-10.734Zm89.972 35.879a323.982 323.982 0 0 1-23.579-6.078l1.951-5.632c18.443 5.628 37.759 9.53 57.156 11.672l-1.953 5.637a341.135 341.135 0 0 1-16.874-2.385l-16.701-3.214Zm95.489 6.97c-6.841.514-13.813.804-20.888.861l-3.419-5.922c19.246-.033 38.084-1.856 55.712-5.501l3.353 5.806a264.886 264.886 0 0 1-11.518 2.073l-23.24 2.683Zm109.269-36.303c-10.882 8.513-24.176 15.735-39.285 21.485l-7.771-4.486c8.741-3.246 16.964-7.053 24.538-11.426 5.455-3.149 10.402-6.493 14.843-10.004l7.675 4.431Zm25.65-30.956c-1.839 3.943-4.067 7.745-6.655 11.398l-9.917-1.908c7.322-9.91 11.496-20.589 12.579-31.579l9.721 1.871a62.08 62.08 0 0 1-1.231 7.234l-4.497 12.984Zm3.828-43.921-9.373 1.082c-2.748-11.235-8.572-22.497-17.414-33.323l9.065-1.046c8.637 10.649 14.678 21.869 17.722 33.287Z" clip-rule="evenodd"/>
  </mask>
  <path fill="#fff" fill-rule="evenodd" d="M645.192 149.531c16.797 7.329 31.729 15.909 44.394 25.369l-6.244 3.605c-6.028-4.567-12.682-8.973-19.957-13.173-7.76-4.48-15.926-8.553-24.405-12.215l6.212-3.586Zm-94.473-24.135a342.617 342.617 0 0 1 29.717 4.379 330.456 330.456 0 0 1 27.692 6.563l-1.772 5.116c-18.583-5.389-37.986-9.044-57.412-10.933l1.775-5.125Zm-57.456-.883a311.829 311.829 0 0 1 20.887-.861l3.094 5.359c-19.241.049-38.069 1.887-55.685 5.548l-3.055-5.29a266.084 266.084 0 0 1 11.517-2.073l23.242-2.683Zm-80.31 19.105a183.407 183.407 0 0 1 10.606-4.394l7.152 4.129c-8.64 3.225-16.774 6.998-24.27 11.326-5.531 3.194-10.54 6.587-15.029 10.151l-7.221-4.169c.795-.619 1.603-1.232 2.423-1.837l26.339-15.206Zm-54.61 48.155c1.839-3.943 4.067-7.745 6.656-11.399l9.493 1.827c-7.222 9.937-11.295 20.635-12.277 31.637l-9.6-1.848a62.149 62.149 0 0 1 1.231-7.236l4.497-12.981Zm-.75 53.031a75.437 75.437 0 0 1-2.924-8.541l9.434-1.09c2.952 11.228 8.972 22.467 18.003 33.255l-9.431 1.089a115.243 115.243 0 0 1-3.066-3.901l-12.016-20.812Zm52.032 56.756a189.155 189.155 0 0 1-14.59-10.399l6.646-3.837c6.862 5.473 14.603 10.732 23.211 15.702a232.48 232.48 0 0 0 20.085 10.301l-6.708 3.872a249.545 249.545 0 0 1-10.052-4.905l-18.592-10.734Zm89.972 35.879a323.982 323.982 0 0 1-23.579-6.078l1.951-5.632c18.443 5.628 37.759 9.53 57.156 11.672l-1.953 5.637a341.135 341.135 0 0 1-16.874-2.385l-16.701-3.214Zm95.489 6.97c-6.841.514-13.813.804-20.888.861l-3.419-5.922c19.246-.033 38.084-1.856 55.712-5.501l3.353 5.806a264.886 264.886 0 0 1-11.518 2.073l-23.24 2.683Zm109.269-36.303c-10.882 8.513-24.176 15.735-39.285 21.485l-7.771-4.486c8.741-3.246 16.964-7.053 24.538-11.426 5.455-3.149 10.402-6.493 14.843-10.004l7.675 4.431Zm25.65-30.956c-1.839 3.943-4.067 7.745-6.655 11.398l-9.917-1.908c7.322-9.91 11.496-20.589 12.579-31.579l9.721 1.871a62.08 62.08 0 0 1-1.231 7.234l-4.497 12.984Zm3.828-43.921-9.373 1.082c-2.748-11.235-8.572-22.497-17.414-33.323l9.065-1.046c8.637 10.649 14.678 21.869 17.722 33.287Z" clip-rule="evenodd"/>
  <path fill="#000" d="m645.192 149.531.738-.564-.85-.371-.754.435.866.5Zm44.394 25.369.866.5.762-.44-.659-.493-.969.433Zm-6.244 3.605-.974.428.849.644.991-.572-.866-.5Zm-44.362-25.388-.866-.5-1 .578 1.132.489.734-.567Zm-88.261-27.721.214-.696-1.18-.121-.235.679 1.201.138Zm29.717 4.379.387-.67-.387.67Zm27.692 6.563 1.201.138.185-.533-.846-.24-.54.635Zm-1.772 5.116-.55.632 1.436.416.315-.91-1.201-.138Zm-57.412-10.933-1.201-.139-.248.715 1.245.121.204-.697Zm-55.681-6.008-.158-.702-.041.004-.041.004.24.694Zm20.887-.861 1.162-.224-.284-.49-.895.007.017.707Zm3.094 5.359.006.707 1.691-.004-.535-.926-1.162.223Zm-55.685 5.548-1.162.223.396.687 1.18-.245-.414-.665Zm-3.055-5.29-.406-.667-1.136.231.381.66 1.161-.224Zm11.517-2.073-.24-.693-.042.005-.04.006.322.682Zm-57.068 16.422-.755-.557-.059.026-.052.031.866.5Zm10.606-4.394.866-.5-.705-.407-.833.316.672.591Zm7.152 4.129.665.594 1.273-.475-1.072-.619-.866.5Zm-24.27 11.326-.866-.5.866.5Zm-15.029 10.151-.866.5 1.014.585.843-.669-.991-.416Zm-7.221-4.169-.984-.421-.629.49.747.431.866-.5Zm2.423-1.837-.866-.5-.052.03-.046.034.964.436Zm-28.271 32.949-1.183-.184-.01.023-.008.022 1.201.139Zm6.656-11.399.387-.671-1.087-.209-.434.612 1.134.268Zm9.493 1.827 1.129.274.511-.704-1.253-.241-.387.671Zm-12.277 31.637-.387.67 1.527.294.083-.928-1.223-.036Zm-9.6-1.848-1.222-.045-.06.544.895.172.387-.671Zm1.231-7.236-1.201-.138-.007.022-.006.023 1.214.093Zm3.747 40.05-1.192.163.012.031.018.03 1.162-.224Zm-2.924-8.541-.24-.694-1.154.134.185.671 1.209-.111Zm9.434-1.09 1.211-.106-.192-.732-1.259.145.24.693Zm18.003 33.255.241.694 1.55-.179-.688-.822-1.103.307Zm-9.431 1.089-1.107.303.409.499.938-.108-.24-.694Zm-3.066-3.901-1.162.223.017.03.021.028 1.124-.281Zm40.016 35.944-.912.472.022.014.024.014.866-.5Zm-14.59-10.399-.866-.5-.742.428.619.489.989-.417Zm6.646-3.837.992-.415-.842-.672-1.016.587.866.5Zm43.296 26.003.866.5.975-.563-1.084-.493-.757.556Zm-6.708 3.872-.764.553.856.395.774-.448-.866-.5Zm-10.052-4.905-.866.5.024.014.026.013.816-.527Zm71.38 25.145-.433.661.023.005.023.004.387-.67Zm-23.579-6.078-1.201-.139-.181.522.819.245.563-.628Zm1.951-5.632.572-.626-1.451-.442-.322.929 1.201.139Zm57.156 11.672 1.201.139.242-.7-1.213-.134-.23.695Zm-1.953 5.637-.241.694 1.202.139.24-.694-1.201-.139Zm-16.874-2.385-.388.671.024.004.024.004.34-.679Zm78.788 3.756.158.701.041-.003.041-.004-.24-.694Zm-20.888.861-1.162.224.284.49.895-.007-.017-.707Zm-3.419-5.922-.004-.707-1.694.003.536.927 1.162-.223Zm55.712-5.501 1.162-.224-.396-.686-1.179.244.413.666Zm3.353 5.806.406.667 1.136-.231-.381-.66-1.161.224Zm-11.518 2.073.24.693.042-.005.04-.006-.322-.682Zm86.029-33.62.986.42.625-.489-.745-.431-.866.5Zm-39.285 21.485-.866.5.707.408.834-.317-.675-.591Zm-7.771-4.486-.662-.595-1.278.475 1.074.62.866-.5Zm39.381-21.43.866-.5-1.011-.584-.844.667.989.417Zm33.325-26.525 1.182.184.011-.023.008-.022-1.201-.139Zm-6.655 11.398-.388.671 1.087.209.434-.612-1.133-.268Zm-9.917-1.908-1.127-.278-.521.706 1.261.242.387-.67Zm12.579-31.579.388-.671-1.52-.292-.091.923 1.223.04Zm9.721 1.871 1.222.045.06-.544-.895-.172-.387.671Zm-1.231 7.234 1.201.139.008-.022.005-.023-1.214-.094Zm-.669-30.937.24.693 1.149-.132-.178-.669-1.211.108Zm-9.373 1.082-1.212.099.181.741 1.271-.146-.24-.694Zm-17.414-33.323-.24-.693-1.535.177.668.818 1.107-.302Zm9.065-1.046 1.11-.3-.408-.502-.942.108.24.694Zm-71.658-49.847c16.709 7.29 31.564 15.827 44.164 25.237l1.938-.865c-12.731-9.508-27.74-18.133-44.625-25.5l-1.477 1.128Zm39.755 28.91 6.244-3.605-1.732-1-6.244 3.605 1.732 1Zm-21.689-13.173c7.236 4.178 13.854 8.559 19.849 13.101l1.948-.857c-6.061-4.592-12.752-9.022-20.065-13.244l-1.732 1Zm-24.273-12.148c8.432 3.641 16.554 7.692 24.273 12.148l1.732-1c-7.801-4.504-16.012-8.599-24.538-12.281l-1.467 1.133Zm6.08-4.653-6.212 3.586 1.732 1 6.212-3.586-1.732-1Zm-93.822-22.939a340.73 340.73 0 0 1 29.544 4.354l.775-1.341a344.453 344.453 0 0 0-29.89-4.405l-.429 1.392Zm29.544 4.354a328.383 328.383 0 0 1 27.54 6.526l1.08-1.269a331.676 331.676 0 0 0-27.845-6.598l-.775 1.341Zm27.509 11.146 1.772-5.116-2.402-.277-1.772 5.116 2.402.277Zm-58.817-10.374c19.303 1.877 38.59 5.51 57.066 10.868l1.1-1.264c-18.69-5.42-38.21-9.098-57.759-10.999l-.407 1.395Zm.778-5.96-1.775 5.124 2.402.277 1.775-5.124-2.402-.277Zm-56.096-.044a309.562 309.562 0 0 1 20.745-.855l-.034-1.414a314.74 314.74 0 0 0-21.028.866l.317 1.403Zm24.984 3.574-3.094-5.36-2.324.447 3.094 5.36 2.324-.447Zm-56.433 6.436c17.478-3.631 36.167-5.457 55.277-5.506l-.011-1.414c-19.372.049-38.34 1.9-56.095 5.59l.829 1.33Zm-4.63-5.731 3.054 5.289 2.324-.447-3.055-5.29-2.323.448Zm1.568.443a263.957 263.957 0 0 1 11.432-2.058l-.644-1.364a266.918 266.918 0 0 0-11.601 2.088l.813 1.334Zm34.112-6.117-23.242 2.684.48 1.387 23.243-2.684-.481-1.387Zm-79.315 20.355a182.503 182.503 0 0 1 10.522-4.359l-1.343-1.182a184.277 184.277 0 0 0-10.689 4.428l1.51 1.113Zm17.869-1.321-7.152-4.129-1.732 1 7.152 4.129 1.732-1Zm-24.27 12.326c7.434-4.292 15.5-8.034 24.069-11.232l-1.33-1.188c-8.712 3.252-16.913 7.057-24.471 11.42l1.732 1Zm-14.904 10.067c4.452-3.534 9.418-6.9 14.904-10.067l-1.732-1c-5.577 3.22-10.627 6.642-15.153 10.235l1.981.832Zm-9.078-4.085 7.221 4.169 1.732-1-7.221-4.169-1.732 1Zm1.85-.079a115.51 115.51 0 0 1 2.404-1.822l-1.929-.872c-.827.611-1.641 1.228-2.443 1.852l1.968.842Zm26.912-17.964-26.339 15.206 1.732 1 26.339-15.206-1.732-1Zm-52.561 48.839c1.825-3.915 4.037-7.689 6.606-11.315l-2.267-.536c-2.609 3.681-4.853 7.512-6.705 11.483l2.366.368Zm15.353-10.427-9.493-1.827-.775 1.342 9.493 1.827.775-1.342Zm-11.441 32.344c.975-10.925 5.019-21.542 12.183-31.399l-2.259-.548c-7.279 10.017-11.382 20.796-12.37 31.874l2.446.073Zm-11.21-1.213 9.6 1.847.774-1.341-9.6-1.848-.774 1.342Zm1.609-.626c.264-2.4.67-4.796 1.223-7.187l-2.428-.187a62.76 62.76 0 0 0-1.239 7.284l2.444.09Zm3.305-20.401-4.497 12.982 2.402.277 4.497-12.981-2.402-.278Zm1.643 53.007a74.98 74.98 0 0 1-2.906-8.489l-2.419.222a75.954 75.954 0 0 0 2.941 8.593l2.384-.326Zm5.078-10.161-9.434 1.089.481 1.387 9.434-1.089-.481-1.387Zm19.346 33.641c-8.979-10.727-14.962-21.898-17.895-33.054l-2.421.213c2.97 11.299 9.027 22.605 18.111 33.456l2.205-.615Zm-10.294 2.09 9.432-1.089-.481-1.387-9.432 1.089.481 1.387Zm.866-.997a115.536 115.536 0 0 1-3.049-3.88l-2.247.563a116.812 116.812 0 0 0 3.083 3.923l2.213-.606Zm-17.35-24.186 12.016 20.811 2.324-.447-12.016-20.812-2.324.448Zm54.107 56.061a188.534 188.534 0 0 1-14.515-10.346l-1.977.835c4.574 3.609 9.47 7.1 14.667 10.454l1.825-.943Zm-9.723-14.265-6.646 3.837 1.732 1 6.646-3.837-1.732-1Zm24.944 15.702c-8.563-4.944-16.262-10.174-23.086-15.617l-1.984.829c6.9 5.504 14.683 10.791 23.337 15.788l1.733-1Zm19.975 10.245a230.938 230.938 0 0 1-19.975-10.245l-1.733 1a234.12 234.12 0 0 0 20.193 10.357l1.515-1.112Zm-6.599 4.928 6.708-3.872-1.732-1-6.708 3.872 1.732 1Zm-.102-1.052a248.917 248.917 0 0 1-9.999-4.88l-1.633 1.054a250.136 250.136 0 0 0 10.104 4.931l1.528-1.105Zm-30.274-14.587 18.592 10.734 1.732-1-18.592-10.734-1.732 1Zm91.272 34.717a321.997 321.997 0 0 1-23.45-6.044l-1.126 1.256a325.996 325.996 0 0 0 23.709 6.111l.867-1.323Zm-23.263-11.187-1.951 5.632 2.402.278 1.951-5.633-2.402-.277Zm58.587 11.116c-19.275-2.128-38.476-6.006-56.814-11.603l-1.144 1.251c18.547 5.661 37.979 9.586 57.498 11.741l.46-1.389Zm-.982 6.471 1.953-5.637-2.402-.278-1.953 5.638 2.402.277Zm-.959-.832a339.731 339.731 0 0 1-16.776-2.372l-.68 1.359a344.82 344.82 0 0 0 16.973 2.4l.483-1.387Zm-34.204-4.236 16.7 3.215.775-1.342-16.701-3.214-.774 1.341Zm95.718 5.599a309.65 309.65 0 0 1-20.747.855l.034 1.414a314.068 314.068 0 0 0 21.029-.867l-.316-1.402Zm-25.311-4.137 3.419 5.923 2.324-.447-3.419-5.923-2.324.447Zm56.461-6.39c-17.489 3.617-36.188 5.427-55.303 5.46l.007 1.414c19.378-.033 38.355-1.868 56.122-5.542l-.826-1.332Zm4.927 6.248-3.352-5.806-2.324.448 3.353 5.806 2.323-.448Zm-1.568-.443a263.73 263.73 0 0 1-11.433 2.058l.644 1.364a266.693 266.693 0 0 0 11.602-2.088l-.813-1.334Zm-34.111 6.117 23.24-2.684-.48-1.387-23.24 2.684.48 1.387Zm108.044-37.416c-10.795 8.444-23.983 15.609-38.974 21.314l1.349 1.181c15.227-5.795 28.627-13.075 39.596-21.656l-1.971-.839Zm-46.937 17.918 7.771 4.486 1.733-1-7.772-4.486-1.732 1Zm24.538-12.426c-7.511 4.337-15.667 8.112-24.334 11.331l1.325 1.19c8.813-3.274 17.105-7.112 24.741-11.521l-1.732-1Zm14.72-9.921c-4.404 3.481-9.31 6.798-14.72 9.921l1.732 1c5.5-3.175 10.488-6.547 14.966-10.087l-1.978-.834Zm9.53 4.348-7.675-4.431-1.732 1 7.675 4.431 1.732-1Zm23.601-30.64a72.812 72.812 0 0 1-6.606 11.314l2.267.536c2.608-3.681 4.852-7.511 6.704-11.482l-2.365-.368Zm-15.776 10.344 9.916 1.909.775-1.342-9.917-1.908-.774 1.341Zm11.743-32.289c-1.075 10.913-5.219 21.511-12.483 31.341l2.254.555c7.381-9.99 11.585-20.749 12.675-31.816l-2.446-.08Zm11.331 1.24-9.72-1.871-.775 1.342 9.721 1.871.774-1.342Zm-1.609.626a61.891 61.891 0 0 1-1.223 7.186l2.428.187a62.532 62.532 0 0 0 1.239-7.283l-2.444-.09Zm-3.305 20.402 4.497-12.984-2.402-.277-4.497 12.983 2.402.278Zm2.387-44.753-9.373 1.082.48 1.387 9.373-1.083-.48-1.386Zm-7.92 1.676c-2.766-11.307-8.626-22.637-17.519-33.525l-2.215.603c8.79 10.763 14.578 21.957 17.309 33.12l2.425-.198Zm-18.386-32.53 9.065-1.047-.481-1.387-9.065 1.047.481 1.387Zm7.715-1.44c8.59 10.591 14.595 21.746 17.621 33.095l2.421-.216c-3.063-11.488-9.14-22.772-17.823-33.479l-2.219.6Z" mask="url(#a)"/>
  <mask id="b" fill="#fff">
    <path fill-rule="evenodd" d="M399.687 79.984c32.7-8.124 68.498-12.04 105.166-11.842l14.608 25.3c-36.584-.521-72.449 3.754-104.539 12.929l-15.235-26.387ZM256.838 209.67c.029-21.132 7.181-41.728 21.618-60.505l45.535 8.764c-16.462 18.357-24.447 38.951-24.133 60.021l-43.02-8.28Zm97.864 131.465c-14.513-8.449-27.438-17.421-38.759-26.771L342.9 298.8c10.757 9.618 23.511 18.786 38.239 27.289 14.191 8.194 29.452 15.329 45.448 21.394l-27.19 15.698c-14.833-6.158-29.094-13.104-42.584-20.828l-2.111-1.219Zm263.821 56.495a474.772 474.772 0 0 1-37.601 1.214l-14.923-25.846c36.551.396 72.343-4.003 104.324-13.3l15.858 27.464c-9.944 2.451-20.171 4.514-30.621 6.192l-37.037 4.276Zm201.609-99.292c-3.15 6.54-7.084 12.931-11.809 19.124l-48.046-9.247c16.378-18.382 24.277-38.992 23.877-60.07l45.507 8.759a92.668 92.668 0 0 1-2.122 20.05l-7.407 21.384Zm-51.001-146.88-28.008 16.17c-10.758-9.62-23.513-18.79-38.244-27.295-14.189-8.191-29.447-15.325-45.44-21.39l27.65-15.964c15.947 6.522 31.246 13.947 45.655 22.267 14.333 8.274 27.134 17.058 38.387 26.212Z" clip-rule="evenodd"/>
  </mask>
  <path fill="#fff" fill-rule="evenodd" d="M399.687 79.984c32.7-8.124 68.498-12.04 105.166-11.842l14.608 25.3c-36.584-.521-72.449 3.754-104.539 12.929l-15.235-26.387ZM256.838 209.67c.029-21.132 7.181-41.728 21.618-60.505l45.535 8.764c-16.462 18.357-24.447 38.951-24.133 60.021l-43.02-8.28Zm97.864 131.465c-14.513-8.449-27.438-17.421-38.759-26.771L342.9 298.8c10.757 9.618 23.511 18.786 38.239 27.289 14.191 8.194 29.452 15.329 45.448 21.394l-27.19 15.698c-14.833-6.158-29.094-13.104-42.584-20.828l-2.111-1.219Zm263.821 56.495a474.772 474.772 0 0 1-37.601 1.214l-14.923-25.846c36.551.396 72.343-4.003 104.324-13.3l15.858 27.464c-9.944 2.451-20.171 4.514-30.621 6.192l-37.037 4.276Zm201.609-99.292c-3.15 6.54-7.084 12.931-11.809 19.124l-48.046-9.247c16.378-18.382 24.277-38.992 23.877-60.07l45.507 8.759a92.668 92.668 0 0 1-2.122 20.05l-7.407 21.384Zm-51.001-146.88-28.008 16.17c-10.758-9.62-23.513-18.79-38.244-27.295-14.189-8.191-29.447-15.325-45.44-21.39l27.65-15.964c15.947 6.522 31.246 13.947 45.655 22.267 14.333 8.274 27.134 17.058 38.387 26.212Z" clip-rule="evenodd"/>
  <path fill="#000" d="m399.687 79.984-.484-.65-1.034.257.356.617 1.162-.224Zm105.166-11.842 1.162-.224-.276-.479-.874-.004-.012.707Zm14.608 25.3-.03.708 1.744.024-.552-.955-1.162.224Zm-104.539 12.929-1.162.224.445.771 1.261-.361-.544-.634ZM256.838 209.669h-1.225v.51l.838.161.387-.671Zm21.618-60.505.387-.671-1.055-.203-.452.587 1.12.287Zm45.535 8.764 1.088.325.659-.734-1.359-.262-.388.671Zm-24.133 60.021-.387.671 1.627.313-.015-.99-1.225.006Zm54.844 123.185-.869.498.003.002.866-.5Zm-38.759-26.771-.866-.5-.726.42.588.486 1.004-.406ZM342.9 298.8l1.029-.383-.823-.736-1.072.619.866.5Zm83.687 48.683.866.5 1.064-.614-1.258-.477-.672.591Zm-27.19 15.698-.715.574.845.351.736-.425-.866-.5Zm-42.584-20.828-.866.5.004.002.862-.502Zm261.71 55.276.153.701.044-.003.044-.005-.241-.693Zm-37.601 1.214-1.162.223.275.478.872.006.015-.707Zm-14.923-25.846.023-.707-1.733-.018.548.949 1.162-.224Zm104.324-13.3 1.162-.224-.448-.776-1.264.368.55.632Zm15.858 27.464.481.651 1.038-.256-.357-.618-1.162.223Zm-30.621 6.192.24.693.044-.005.044-.007-.328-.681Zm164.572-95.016 1.18.189.012-.025.009-.026-1.201-.138Zm-11.809 19.124-.387.671 1.058.204.45-.59-1.121-.285Zm-48.046-9.247-1.09-.323-.653.733 1.355.261.388-.671Zm23.877-60.07.387-.671-1.63-.313.018.992 1.225-.008Zm45.507 8.759 1.225-.002-.001-.508-.836-.161-.388.671Zm-2.122 20.05 1.201.139.009-.025.005-.025-1.215-.089Zm-58.408-125.496.866.5.731-.423-.599-.487-.998.41Zm-28.008 16.17-1.028.383.822.736 1.072-.619-.866-.5Zm-83.684-48.685-.866-.5-1.064.614 1.257.477.673-.591Zm27.65-15.964.708-.577-.843-.345-.731.422.866.5ZM400.171 80.634c32.533-8.083 68.161-11.983 104.671-11.785l.023-1.414c-36.827-.2-72.794 3.734-105.662 11.9l.968 1.299Zm120.452 12.585-14.608-25.3-2.324.446 14.608 25.301 2.324-.447Zm-105.157 13.786c31.899-9.12 67.565-13.374 103.965-12.855l.061-1.414c-36.769-.525-72.832 3.772-105.113 13.002l1.087 1.267Zm-16.941-26.797 15.235 26.387 2.324-.447-15.235-26.387-2.324.447ZM258.063 209.67c.028-21.041 7.15-41.538 21.512-60.219l-2.239-.574c-14.51 18.874-21.694 39.568-21.723 60.792l2.45.001Zm66.316-52.413-45.536-8.764-.775 1.342 45.536 8.764.775-1.342Zm-23.296 60.686c-.312-20.964 7.632-41.442 23.996-59.69l-2.175-.65c-16.561 18.467-24.586 39.175-24.27 60.352l2.449-.012Zm-44.632-7.603 43.02 8.28.775-1.342-43.021-8.28-.774 1.342Zm99.121 130.296c-14.464-8.42-27.344-17.361-38.625-26.678l-2.008.811c11.361 9.383 24.332 18.386 38.894 26.863l1.739-.996ZM342.034 298.3l-26.957 15.563 1.732 1 26.957-15.563-1.732-1Zm39.971 27.289c-14.667-8.467-27.366-17.597-38.076-27.172l-2.058.767c10.804 9.659 23.612 18.867 38.402 27.405l1.732-1Zm45.254 21.303c-15.926-6.039-31.122-13.143-45.254-21.303l-1.732 1c14.25 8.228 29.576 15.393 45.642 21.485l1.344-1.182Zm-26.996 16.789 27.19-15.698-1.732-1-27.19 15.698 1.732 1Zm-.151-1.074c-14.781-6.137-28.992-13.058-42.436-20.756l-1.725 1.004c13.536 7.75 27.845 14.72 42.731 20.9l1.43-1.148Zm-46.276-20.973 2.111 1.219 1.732-1-2.111-1.219-1.732 1Zm264.535 55.293a472.458 472.458 0 0 1-37.435 1.209l-.029 1.414a476.658 476.658 0 0 0 37.769-1.22l-.305-1.403Zm-53.534-23.706 14.923 25.845 2.323-.447-14.922-25.845-2.324.447Zm104.936-14.156c-31.791 9.242-67.384 13.619-103.751 13.225l-.046 1.414c36.736.398 72.727-4.023 104.898-13.376l-1.101-1.263Zm17.57 27.873-15.858-27.465-2.324.447 15.858 27.465 2.324-.447Zm-1.643-.427c-9.893 2.438-20.069 4.491-30.468 6.16l.656 1.363c10.501-1.686 20.78-3.759 30.774-6.222l-.962-1.301Zm-66.936 11.811 37.036-4.276-.48-1.387-37.037 4.276.481 1.387Zm200.188-100.175c-3.134 6.509-7.049 12.867-11.75 19.029l2.242.57c4.749-6.225 8.703-12.647 11.868-19.22l-2.36-.379Zm-59.063 10.738 48.047 9.247.774-1.342-48.046-9.247-.775 1.342Zm23.04-60.733c.399 20.971-7.461 41.466-23.742 59.739l2.179.647c16.476-18.492 24.415-39.217 24.013-60.401l-2.45.015Zm47.12 8.08-45.508-8.759-.774 1.342 45.507 8.758.775-1.341Zm-1.612.672a92.335 92.335 0 0 1-2.113 19.961l2.43.177a93.139 93.139 0 0 0 2.132-20.141l-2.449.003Zm-7.104 41.571 7.407-21.383-2.402-.277-7.407 21.383 2.402.277Zm-53.069-147.518-28.007 16.17 1.732 1 28.008-16.17-1.733-1Zm-26.112 16.286c-10.805-9.661-23.615-18.871-38.407-27.411l-1.732 1c14.669 8.47 27.37 17.601 38.082 27.178l2.057-.767Zm-38.407-27.411c-14.248-8.226-29.571-15.39-45.634-21.481l-1.345 1.182c15.924 6.038 31.117 13.142 45.247 21.299l1.732-1Zm-45.44-20.39 27.65-15.964-1.732-1-27.65 15.964 1.732 1Zm26.076-15.887c15.891 6.499 31.137 13.899 45.497 22.19l1.733-1c-14.459-8.348-29.811-15.799-45.814-22.344l-1.416 1.154Zm45.497 22.19c14.284 8.246 27.041 16.999 38.254 26.121l1.997-.819c-11.292-9.186-24.138-18-38.518-26.302l-1.733 1Z" mask="url(#b)"/>
  <path fill="#fff" stroke="#fff" d="M317.5 363.5c7.5 8 45 33.5 82.5 46.5v-46.5c-9-3-58.5-26-82.5-48v48Zm367.5 70c-60 13.5-101.5 12.5-104 11l1-45.5c28 1 75.5-4 103-11.5v46Zm123-83c9.5-15.5 24-49 21-93 0 34.8-17.5 57-21 60.5v32.5Z"/>
</svg>
